<svg width="1463" height="310" viewBox="0 0 1463 310" fill="none" xmlns="http://www.w3.org/2000/svg">
<path d="M-18.7759 173.427C-79.6511 156.445 -104.065 124.984 -68.5314 73.3128C5.94958 -34.9934 1.7617 59.3694 -18.7759 173.427C161.961 223.848 664.097 146.643 872.969 91.8123C1152.19 18.5132 1523.47 -28.1875 1514.97 21.8125C1506.47 71.8126 1521.77 415.312 1514.97 417.312C1506.47 419.812 -68.5314 403.312 -68.5314 395.812C-68.5314 392.981 -37.1269 275.342 -18.7759 173.427Z" fill="#DC09FF"/>
<path d="M-68.5314 73.3128C-209.563 278.394 593.745 165.112 872.969 91.8123C1152.19 18.5132 1523.47 -28.1875 1514.97 21.8125C1506.47 71.8126 1521.77 415.312 1514.97 417.312C1506.47 419.812 -68.5314 403.312 -68.5314 395.812C-68.5314 389.812 72.5007 -131.768 -68.5314 73.3128Z" stroke="black"/>
</svg>
