<svg width="215" height="220" viewBox="0 0 215 220" fill="none" xmlns="http://www.w3.org/2000/svg">
<path fill-rule="evenodd" clip-rule="evenodd" d="M0 69C0 107.108 30.3281 138 67.7397 138L67.885 138L68 137.999V220H215V73H135.368C135.442 71.6763 135.479 70.3426 135.479 69C135.479 30.8924 105.151 0 67.7397 0C30.3281 0 0 30.8924 0 69ZM135.368 73H68V137.999C103.975 137.862 133.338 109.159 135.368 73ZM44.5 68C50.8513 68 56 62.8513 56 56.5C56 50.1487 50.8513 45 44.5 45C38.1487 45 33 50.1487 33 56.5C33 62.8513 38.1487 68 44.5 68ZM81 207H203V212H81V207ZM203 196H81V201H203V196Z" fill="black"/>
</svg>
